<svg xmlns="http://www.w3.org/2000/svg" version="1.1" xmlns:xlink="http://www.w3.org/1999/xlink" width="1000" height="1000"><g clip-path="url(#SvgjsClipPath1104)"><rect width="1000" height="1000" fill="#ffffff"></rect><g transform="matrix(1.953125,0,0,1.953125,0,0)"><svg xmlns="http://www.w3.org/2000/svg" version="1.1" xmlns:xlink="http://www.w3.org/1999/xlink" width="512" height="512"><svg width="512" height="512" viewBox="0 0 512 512" fill="none" xmlns="http://www.w3.org/2000/svg">
<rect width="512" height="512" fill="white"></rect>
<rect x="56.1504" y="53" width="397.495" height="408.009" stroke="#A07C26" stroke-width="24"></rect>
<path d="M461 361.177V405.98L254.897 162.911L51 403.38V361.177L254.897 118.108L461 361.177Z" fill="#A07C26"></path>
<path d="M433.289 467.392H395.299L254.897 301.808L114.496 467.392H76.5068L70.0557 475L62.4336 467.392H76.5068L254.898 257.005L433.289 467.392ZM439.739 467.392V475L433.289 467.392H439.739Z" fill="#A07C26"></path>
</svg></svg></g></g><defs><clipPath id="SvgjsClipPath1104"><rect width="1000" height="1000" x="0" y="0" rx="0" ry="0"></rect></clipPath></defs></svg>
